<svg width="1100" height="1450" viewBox="0 0 1100 1450" xmlns="http://www.w3.org/2000/svg">
  <defs>
    <linearGradient id="sea" x1="0" x2="0" y1="0" y2="1">
      <stop offset="0%" stop-color="#0b253d"/>
      <stop offset="100%" stop-color="#1a4259"/>
    </linearGradient>
    <linearGradient id="land" x1="0" x2="0" y1="0" y2="1">
      <stop offset="0%" stop-color="#739868"/>
      <stop offset="58%" stop-color="#5f8156"/>
      <stop offset="100%" stop-color="#506c49"/>
    </linearGradient>
    <filter id="shoreShadow" x="-20%" y="-20%" width="140%" height="140%">
      <feDropShadow dx="0" dy="10" stdDeviation="14" flood-color="#000" flood-opacity=".4"/>
    </filter>
  </defs>

  <rect width="1100" height="1450" fill="url(#sea)"/>

  <!-- Westeros continental silhouette (stylized, proportionally closer to canonical north-south axis) -->
  <path d="M496 77 L596 112 L656 173 L688 258 L730 336 L779 415 L770 520 L807 602 L821 719 L782 821 L743 901 L679 981 L642 1082 L604 1186 L560 1320 L510 1377 L462 1351 L426 1264 L392 1145 L368 1025 L323 917 L269 826 L241 715 L229 621 L198 536 L205 438 L246 351 L286 296 L341 241 L400 175 Z" fill="url(#land)" stroke="#d4e0c8" stroke-width="7" filter="url(#shoreShadow)"/>

  <!-- Iron Islands -->
  <path d="M177 585 L226 550 L263 588 L237 640 L186 641 Z" fill="#67895f" stroke="#d4e0c8" stroke-width="4"/>
  <path d="M129 642 L167 615 L195 651 L176 693 L136 684 Z" fill="#67895f" stroke="#d4e0c8" stroke-width="3"/>
  <path d="M201 694 L231 669 L252 699 L237 729 L207 722 Z" fill="#67895f" stroke="#d4e0c8" stroke-width="3"/>

  <!-- Dorne tip + Stepstones hint -->
  <path d="M568 1323 L628 1363 L659 1413 L617 1438 L562 1417 L533 1375 Z" fill="#7b9868" stroke="#d4e0c8" stroke-width="4"/>
  <circle cx="719" cy="1360" r="8" fill="#6f8f63"/>
  <circle cx="742" cy="1383" r="6" fill="#6f8f63"/>

  <!-- mountain/river texture -->
  <g opacity=".23" stroke="#e1e8d7" stroke-width="2">
    <path d="M443 191 L657 296"/>
    <path d="M365 334 L758 440"/>
    <path d="M302 493 L807 609"/>
    <path d="M266 654 L821 719"/>
    <path d="M286 812 L763 823"/>
    <path d="M332 967 L688 979"/>
    <path d="M382 1125 L645 1081"/>
  </g>

  <!-- region names -->
  <g fill="#eef5fc" opacity=".86" font-family="serif">
    <text x="517" y="220" font-size="34">O NORTE</text>
    <text x="608" y="500" font-size="24">O VALE</text>
    <text x="483" y="630" font-size="24">TERRAS FLUVIAIS</text>
    <text x="356" y="740" font-size="24">TERRAS OCIDENTAIS</text>
    <text x="607" y="735" font-size="23">TERRAS DA COROA</text>
    <text x="471" y="955" font-size="25">A CAMPINA</text>
    <text x="618" y="962" font-size="23">TERRAS DA TEMPESTADE</text>
    <text x="588" y="1235" font-size="29">DORNE</text>
    <text x="130" y="595" font-size="19">ILHAS DE FERRO</text>
  </g>

  <!-- sea labels -->
  <g fill="#dfeaf4" opacity=".8" font-family="serif">
    <text x="806" y="194" font-size="33">Mar Estreito</text>
    <text x="52" y="519" font-size="27">Mar do Poente</text>
    <text x="754" y="1360" font-size="22">Mar de Dorne</text>
  </g>
</svg>
