<svg width="1200" height="1600" viewBox="0 0 1200 1600" xmlns="http://www.w3.org/2000/svg">
  <defs>
    <linearGradient id="sea" x1="0" x2="0" y1="0" y2="1">
      <stop offset="0%" stop-color="#05162c"/>
      <stop offset="55%" stop-color="#0c2a4a"/>
      <stop offset="100%" stop-color="#163959"/>
    </linearGradient>
    <radialGradient id="seaGlow" cx="48%" cy="18%" r="85%">
      <stop offset="0%" stop-color="#3f7ca8" stop-opacity=".35"/>
      <stop offset="100%" stop-color="#3f7ca8" stop-opacity="0"/>
    </radialGradient>
    <linearGradient id="land" x1="0" x2="0" y1="0" y2="1">
      <stop offset="0%" stop-color="#8ea372"/>
      <stop offset="35%" stop-color="#6f895c"/>
      <stop offset="70%" stop-color="#5d744d"/>
      <stop offset="100%" stop-color="#4f6644"/>
    </linearGradient>
    <linearGradient id="mountains" x1="0" x2="1" y1="0" y2="1">
      <stop offset="0%" stop-color="#d7d3c5" stop-opacity=".85"/>
      <stop offset="100%" stop-color="#665f52" stop-opacity=".75"/>
    </linearGradient>
    <filter id="coastShadow" x="-30%" y="-30%" width="160%" height="160%">
      <feDropShadow dx="0" dy="12" stdDeviation="16" flood-color="#000" flood-opacity=".42"/>
    </filter>
    <filter id="innerTexture" x="-20%" y="-20%" width="140%" height="140%">
      <feTurbulence baseFrequency="0.9" numOctaves="2" seed="2" type="fractalNoise" result="noise"/>
      <feColorMatrix in="noise" type="matrix" values="0 0 0 0 0.4  0 0 0 0 0.43  0 0 0 0 0.32  0 0 0 .12 0"/>
    </filter>
  </defs>

  <rect width="1200" height="1600" fill="url(#sea)"/>
  <rect width="1200" height="1600" fill="url(#seaGlow)"/>

  <g filter="url(#coastShadow)">
    <path d="M526 78 L620 122 L695 184 L756 278 L792 350 L840 436 L834 532 L872 622 L881 756 L844 862 L790 956 L726 1054 L692 1178 L646 1310 L598 1450 L550 1530 L500 1498 L464 1402 L420 1262 L404 1128 L362 1018 L294 900 L255 786 L240 670 L205 550 L215 444 L268 348 L318 280 L377 218 L450 148 Z"
      fill="url(#land)" stroke="#d5d5bf" stroke-width="7"/>

    <path d="M215 674 L262 634 L302 666 L274 724 L224 726 Z" fill="#667f59" stroke="#cad4ba" stroke-width="4"/>
    <path d="M168 758 L206 724 L242 760 L220 804 L176 796 Z" fill="#617b55" stroke="#cad4ba" stroke-width="3"/>
    <path d="M624 1464 L684 1504 L726 1562 L680 1588 L620 1562 L582 1512 Z" fill="#748b5d" stroke="#cad4ba" stroke-width="4"/>
  </g>

  <g opacity=".35" filter="url(#innerTexture)">
    <rect x="210" y="80" width="700" height="1480"/>
  </g>

  <g stroke="url(#mountains)" stroke-width="3" fill="none" opacity=".72">
    <path d="M470 210 L610 286 L720 338"/>
    <path d="M400 332 L655 412 L786 456"/>
    <path d="M360 462 L728 556 L838 612"/>
    <path d="M332 608 L752 726 L828 790"/>
    <path d="M346 764 L744 858 L798 938"/>
    <path d="M382 934 L698 1016 L760 1092"/>
    <path d="M426 1112 L652 1174 L712 1260"/>
  </g>

  <g stroke="#c9d4ba" stroke-width="2" opacity=".5" fill="none">
    <path d="M474 188 C520 286, 478 398, 434 516"/>
    <path d="M562 264 C626 398, 604 520, 548 638"/>
    <path d="M652 376 C714 506, 700 632, 656 744"/>
    <path d="M430 680 C520 764, 544 868, 540 978"/>
    <path d="M534 804 C640 892, 674 988, 670 1106"/>
  </g>



</svg>
